<svg xmlns="http://www.w3.org/2000/svg" width="576.253" height="498.976" viewBox="0 0 576.253 498.976">
  <g id="Login" transform="translate(-18.884 -50.039)">
    <g id="freepik--Floor--inject-2" transform="translate(18.884 260.573)">
      <path id="freepik--floor--inject-2-2" data-name="freepik--floor--inject-2" d="M101.509,465.85c110.173,56.328,288.8,56.328,398.962,0s110.173-147.708,0-203.974-288.789-56.328-398.962,0S-8.652,409.535,101.509,465.85Z" transform="translate(-18.884 -219.654)" fill="#f5f5f5"/>
    </g>
    <g id="freepik--Shadows--inject-2" transform="translate(112.978 366.955)">
      <path id="freepik--Shadow--inject-2" d="M376.4,354.99c6.045,3.488,17.911,2.284,26.5-2.681l49.551-28.785c8.6-4.965,10.662-11.817,4.617-15.317s-17.9-2.259-26.5,2.706l-49.526,28.809C372.442,344.65,370.369,351.5,376.4,354.99Z" transform="translate(-27.561 -305.154)" fill="#ebebeb"/>
      <path id="freepik--shadow--inject-2-2" data-name="freepik--shadow--inject-2" d="M145.109,378.215,94.69,349.107,145.109,320Z" transform="translate(-94.69 -301.828)" fill="#ebebeb"/>
      <path id="freepik--shadow--inject-2-3" data-name="freepik--shadow--inject-2" d="M265.914,399.161,184.65,352.217l81.277-46.857Z" transform="translate(-72.987 -305.36)" fill="#ebebeb"/>
    </g>
    <g id="freepik--Plants--inject-2" transform="translate(21.438 268.167)">
      <g id="freepik--plants--inject-2-2" data-name="freepik--plants--inject-2" transform="translate(0 31.961)">
        <path id="Path_296" data-name="Path 296" d="M94.695,326.677c.149-11.792-8.093-36.331-20.145-51.785S43.357,248.007,29.7,252.513c-12.785,4.208-11.606,20.915,3.724,32.173s38.355,25.433,44.921,44.685l13.964,23.584Z" transform="translate(-20.942 -251.521)" fill="#069ad3"/>
        <path id="Path_297" data-name="Path 297" d="M94.695,326.677c.149-11.792-8.093-36.331-20.145-51.785S43.357,248.007,29.7,252.513c-12.785,4.208-11.606,20.915,3.724,32.173s38.355,25.433,44.921,44.685l13.964,23.584Z" transform="translate(-20.942 -251.521)" opacity="0.1"/>
        <path id="Path_298" data-name="Path 298" d="M92.651,341.279a.856.856,0,0,1-.77-.708c-7.447-40.353-39.6-73.469-59-80.929a.869.869,0,1,1,.621-1.614c19.773,7.609,52.542,41.272,60.064,82.233a.856.856,0,0,1-.683,1.005Z" transform="translate(-18.215 -249.974)" fill="#fff"/>
        <path id="Path_299" data-name="Path 299" d="M87.679,358.632c-1.812-6.653-9.781-17.688-22.764-26.885-14.374-10.166-32.645-14.982-36.778-22.814-4.965-9.409,3.016-18.147,17.874-16.136s40.775,22.665,44.6,53.274Z" transform="translate(-19.562 -241.633)" fill="#069ad3"/>
        <path id="Path_300" data-name="Path 300" d="M88.267,350.127a.869.869,0,0,1-.745-.571c-11.928-34.643-38.094-47.068-50.258-48.793a.858.858,0,0,1,.236-1.7c13.455,1.912,39.484,14.572,51.661,49.923a.881.881,0,0,1-.534,1.1.919.919,0,0,1-.36.037Z" transform="translate(-17.183 -240.054)" fill="#fff"/>
      </g>
      <g id="freepik--plants--inject-2-3" data-name="freepik--plants--inject-2" transform="translate(504.355)">
        <path id="Path_301" data-name="Path 301" d="M436.706,299.289s1.651-24.825,16.3-43.32,13.753-26.066,3.649-29.79-33.514,18.557-28.35,48.285S436.706,299.289,436.706,299.289Z" transform="translate(-427.199 -225.772)" fill="#069ad3"/>
        <path id="Path_302" data-name="Path 302" d="M436.706,299.289s1.651-24.825,16.3-43.32,13.753-26.066,3.649-29.79-33.514,18.557-28.35,48.285S436.706,299.289,436.706,299.289Z" transform="translate(-427.199 -225.772)" opacity="0.1"/>
        <path id="Path_303" data-name="Path 303" d="M431.454,284.383a.583.583,0,0,1-.583-.534C429.17,256.467,448.5,234,455.7,228.911a.559.559,0,0,1,.794.137.583.583,0,0,1-.137.807c-7.1,4.965-26.066,27.022-24.378,53.92a.583.583,0,0,1-.534.608Z" transform="translate(-426.428 -225.041)" fill="#fff"/>
        <path id="Path_304" data-name="Path 304" d="M432.793,312.067A130.795,130.795,0,0,0,453,316.933c11.345,1.787,16.36-3.637,16.36-3.637s-4.468-10.637-10.911-13.654a63.439,63.439,0,0,1,19.686,8.08s6.926.112,9.682-10.464c0,0-4.1-6.368-17.874-9.806,0,0,8.378-2.11,20.456.968.906.36,4.766-13.306,5.933-19.612s-1.365-6.206-6.281-7.559-21.213-4.965-24.291-2.271-4.642,11.953-4.642,11.953a21.821,21.821,0,0,1-.459-11.717s-4.419-1.725-11.3.273c-5.61,1.626-5.884,5.449-5.635,9.769a42.042,42.042,0,0,0,2.483,10.973s-4.382-5.61-4.518-17.787c0,0-11.494,5.71-13.455,17.129C427.1,285.765,425.582,303.925,432.793,312.067Z" transform="translate(-427.271 -217.996)" fill="#069ad3"/>
        <path id="Path_305" data-name="Path 305" d="M433.583,308.551a.658.658,0,0,0,.583-.36c9.148-19.028,43.2-41.135,55.384-43.506a.633.633,0,0,0,.509-.745.658.658,0,0,0-.757-.509c-12.413,2.42-46.994,24.825-56.291,44.2a.645.645,0,0,0,.3.856A.734.734,0,0,0,433.583,308.551Z" transform="translate(-425.901 -216.689)" fill="#fff"/>
      </g>
    </g>
    <g id="freepik--computer-screen--inject-2" transform="translate(87.768 50.039)">
      <path id="Path_306" data-name="Path 306" d="M77.217,422.735c-1.4,0-2.247-1.154-2.247-3.1V210.842L330.7,63.22V271.166a11.084,11.084,0,0,1-4.965,8.689L79.252,422.1A4.134,4.134,0,0,1,77.217,422.735Z" transform="translate(-74.238 -46.859)" fill="#fafafa"/>
      <path id="Path_307" data-name="Path 307" d="M330.077,64.72V271.412a10.488,10.488,0,0,1-4.655,8.056L79.035,421.715a3.438,3.438,0,0,1-1.676.546c-1.378,0-1.527-1.676-1.527-2.383V211.51L330.077,64.72m1.452-2.482L74.38,210.666V419.878c0,2.482,1.241,3.835,2.979,3.835a4.865,4.865,0,0,0,2.4-.732l246.4-142.259a11.891,11.891,0,0,0,5.375-9.309V62.2Z" transform="translate(-74.38 -47.105)" fill="#e0e0e0"/>
      <path id="Path_308" data-name="Path 308" d="M74.39,210.666v34.941L331.527,97.141V62.2Z" transform="translate(-74.378 -47.105)" fill="#069ad3"/>
      <path id="Path_309" data-name="Path 309" d="M90.63,192.723v4.965c0,1.018.732,1.44,1.614.931L171.3,152.979V144.29L92.244,189.931a3.612,3.612,0,0,0-1.614,2.793Z" transform="translate(-70.46 -27.301)" fill="#fafafa"/>
      <path id="Path_310" data-name="Path 310" d="M164.1,140.393c.894-.521,1.614-.1,1.614.931v4.965a3.587,3.587,0,0,1-1.614,2.793l-8.478,4.891v-8.689Z" transform="translate(-54.781 -28.295)" fill="#455a64"/>
      <path id="Path_311" data-name="Path 311" d="M74.38,202.341a11.891,11.891,0,0,1,5.375-9.309l246.4-142.259c2.967-1.713,5.375-.323,5.375,3.1V65.134L74.38,213.6Z" transform="translate(-74.38 -50.039)" fill="#455a64"/>
      <path id="Path_312" data-name="Path 312" d="M259,66.208a5.548,5.548,0,0,0-2.483,4.357c0,1.614,1.13,2.259,2.483,1.465a5.573,5.573,0,0,0,2.483-4.369C261.535,66.034,260.405,65.4,259,66.208Z" transform="translate(-30.439 -46.223)" fill="#069ad3"/>
      <path id="Path_313" data-name="Path 313" d="M265.482,62.488A5.548,5.548,0,0,0,263,66.844c0,1.614,1.13,2.259,2.483,1.465a5.6,5.6,0,0,0,2.483-4.369C267.965,62.326,266.823,61.681,265.482,62.488Z" transform="translate(-28.876 -47.12)" fill="#069ad3"/>
      <path id="Path_314" data-name="Path 314" d="M271.873,58.768a5.548,5.548,0,0,0-2.483,4.357c0,1.614,1.13,2.259,2.483,1.465a5.6,5.6,0,0,0,2.482-4.369C274.392,58.606,273.263,57.961,271.873,58.768Z" transform="translate(-27.334 -48.017)" fill="#069ad3"/>
      <g id="Group_139" data-name="Group 139" transform="translate(145.76 42.888)" opacity="0.1">
        <path id="Path_315" data-name="Path 315" d="M217.619,108.815a12.189,12.189,0,0,0-5.5,9.558c0,3.513,2.482,4.965,5.5,3.178a12.164,12.164,0,0,0,5.511-9.545C223.142,108.493,220.66,107.065,217.619,108.815Z" transform="translate(-186.91 -78.928)"/>
        <path id="Path_316" data-name="Path 316" d="M197.321,120.545a12.164,12.164,0,0,0-5.511,9.545c0,3.513,2.482,4.965,5.511,3.19a12.189,12.189,0,0,0,5.5-9.558C202.82,120.21,200.362,118.807,197.321,120.545Z" transform="translate(-191.81 -76.097)"/>
        <path id="Path_317" data-name="Path 317" d="M237.929,97.154a12.164,12.164,0,0,0-5.5,9.545c0,3.513,2.483,4.965,5.5,3.178a12.152,12.152,0,0,0,5.511-9.545C243.44,96.757,240.982,95.33,237.929,97.154Z" transform="translate(-182.011 -81.752)"/>
        <path id="Path_318" data-name="Path 318" d="M258.251,85.347a12.164,12.164,0,0,0-5.511,9.545c0,3.513,2.483,4.965,5.511,3.178a12.164,12.164,0,0,0,5.511-9.545C263.762,85.012,261.292,83.584,258.251,85.347Z" transform="translate(-177.111 -84.591)"/>
      </g>
      <path id="Path_319" data-name="Path 319" d="M96.045,219.009l59.841-34.556c2.967-1.713,5.375-.323,5.375,3.1v57.457a11.891,11.891,0,0,1-5.375,9.309L96.045,288.866c-2.967,1.713-5.375.323-5.375-3.1V228.318a11.891,11.891,0,0,1,5.375-9.309Z" transform="translate(-70.45 -17.789)" fill="#e0e0e0"/>
      <path id="Path_320" data-name="Path 320" d="M165.045,186.484l125.366-72.34c2.967-1.725,5.375-.335,5.375,3.1v57.445A11.891,11.891,0,0,1,290.411,184l-125.366,72.34c-2.967,1.713-5.375.323-5.375-3.1V195.793a11.891,11.891,0,0,1,5.375-9.309Z" transform="translate(-53.804 -34.753)" fill="#e0e0e0"/>
      <path id="Path_321" data-name="Path 321" d="M96.045,293.326,191.174,238.4c2.979-1.713,5.387-.5,5.387,2.718a11.531,11.531,0,0,1-5.375,8.925L96.045,304.969c-2.967,1.713-5.375.5-5.375-2.718a11.531,11.531,0,0,1,5.375-8.925Z" transform="translate(-70.45 -4.785)" fill="#e0e0e0"/>
      <path id="Path_322" data-name="Path 322" d="M96.045,309.746l95.129-54.925c2.979-1.713,5.387-.5,5.387,2.718a11.531,11.531,0,0,1-5.375,8.925L96.045,321.389c-2.967,1.713-5.375.5-5.375-2.718a11.531,11.531,0,0,1,5.375-8.925Z" transform="translate(-70.45 -0.823)" fill="#e0e0e0"/>
      <path id="Path_323" data-name="Path 323" d="M96.045,326.156l95.129-54.925c2.979-1.713,5.387-.5,5.387,2.718a11.531,11.531,0,0,1-5.375,8.925L96.045,337.8c-2.967,1.713-5.375.5-5.375-2.718a11.531,11.531,0,0,1,5.375-8.925Z" transform="translate(-70.45 3.135)" fill="#e0e0e0"/>
    </g>
    <g id="freepik--Envelope--inject-2" transform="translate(158.358 208.644)">
      <g id="freepik--Letter--inject-2">
        <path id="Path_324" data-name="Path 324" d="M131.25,279.417a7.162,7.162,0,0,1,3.227-5.586L299.451,178.59a7.125,7.125,0,0,1,6.454,0l3.637,2.1a7.125,7.125,0,0,1,3.215,5.586V312.732a7.15,7.15,0,0,1-3.215,5.586L144.593,413.558a7.125,7.125,0,0,1-6.454,0l-3.637-2.1a7.15,7.15,0,0,1-3.227-5.586Z" transform="translate(-131.25 -177.817)" fill="#069ad3"/>
        <path id="Path_325" data-name="Path 325" d="M132,276.239l9.16,5.288L311.621,183.1a6.79,6.79,0,0,0-2.272-2.42l-3.575-2.085a7.075,7.075,0,0,0-6.43,0L134.3,273.831A6.678,6.678,0,0,0,132,276.239Z" transform="translate(-131.069 -177.817)" fill="#fff" opacity="0.4"/>
        <path id="Path_326" data-name="Path 326" d="M131.25,260.288V386.746a7.15,7.15,0,0,0,3.227,5.586l3.637,2.1a4.752,4.752,0,0,0,.881.4,7.172,7.172,0,0,0,1.328.31,7.943,7.943,0,0,0,2.545-.1,4.711,4.711,0,0,0,.633-.161l.385-.149a1.961,1.961,0,0,1-1.552,0,2.234,2.234,0,0,1-.981-2.123V266.121a2.843,2.843,0,0,1,1.676-2.756l-1.676-.968-9.173-5.288A6.6,6.6,0,0,0,131.25,260.288Z" transform="translate(-131.25 -158.688)" opacity="0.1"/>
        <path id="Path_327" data-name="Path 327" d="M139.393,280.568l76.4,28.549a12.412,12.412,0,0,0,14.734-4.853l12.264-18.792L310.462,181.79,245.234,286.179,310.8,311.835a6.665,6.665,0,0,1-1.005,3.215L245.06,286.5l-14.3,22.777a12.412,12.412,0,0,1-15.54,4.766l-10.153-4.481L140.374,412.923a2.234,2.234,0,0,1-.981-2.122v-2.1l65.389-99.213Z" transform="translate(-129.289 -176.859)" opacity="0.2"/>
      </g>
    </g>
    <g id="freepik--mobile-screen--inject-2" transform="translate(304.577 81.828)">
      <path id="Path_328" data-name="Path 328" d="M249.05,161V451.326c0,3.426,2.408,4.816,5.375,3.1l130.43-75.306a11.891,11.891,0,0,0,5.375-9.309V79.486c0-3.426-2.408-4.816-5.375-3.1l-130.43,75.306A11.866,11.866,0,0,0,249.05,161Z" transform="translate(-249.05 -75.649)" fill="#fafafa" stroke="#e0e0e0" stroke-miterlimit="10" stroke-width="1.17"/>
      <path id="Path_329" data-name="Path 329" d="M255.14,150.907a2.966,2.966,0,0,1,1.4-2.259l14.895-8.577c.77-.447,1.39-.149,1.39.658a2.954,2.954,0,0,1-1.39,2.259l-14.895,8.577C255.773,152.011,255.14,151.713,255.14,150.907Z" transform="translate(-247.581 -60.158)" fill="#455a64"/>
      <path id="Path_330" data-name="Path 330" d="M255.14,155.567a2.954,2.954,0,0,1,1.4-2.259l14.895-8.577c.77-.447,1.39-.149,1.39.645a2.954,2.954,0,0,1-1.39,2.271l-14.895,8.565C255.773,156.659,255.14,156.373,255.14,155.567Z" transform="translate(-247.581 -59.034)" fill="#455a64"/>
      <path id="Path_331" data-name="Path 331" d="M255.14,160.227a2.954,2.954,0,0,1,1.4-2.259l14.895-8.577c.77-.447,1.39-.161,1.39.645a2.929,2.929,0,0,1-1.39,2.259l-14.895,8.577C255.773,161.369,255.14,161.034,255.14,160.227Z" transform="translate(-247.581 -57.91)" fill="#455a64"/>
      <path id="Path_332" data-name="Path 332" d="M357.691,99.392V97.07a.161.161,0,0,0-.236-.149l-1.787.807a.211.211,0,0,1-.3-.137,3.81,3.81,0,0,0-.4-.881.485.485,0,0,1,0-.434l1.241-2.408a.261.261,0,0,0-.112-.348l-1.241-.745a.273.273,0,0,0-.348.087l-1.49,2.234a.459.459,0,0,1-.385.186,4.418,4.418,0,0,0-.968.1.211.211,0,0,1-.273-.186l-.2-1.949a.144.144,0,0,0-.236-.124l-2.011,1.154a.534.534,0,0,0-.236.372l-.2,2.234a.807.807,0,0,1-.211.422,11.183,11.183,0,0,0-1.117,1.241.372.372,0,0,1-.4.112l-1.241-.447a.31.31,0,0,0-.36.137l-1.477,2.557a.323.323,0,0,0,.062.372l1.043.894a.4.4,0,0,1,.1.4,12.493,12.493,0,0,0-.472,1.564.769.769,0,0,1-.248.385l-1.837,1.241a.546.546,0,0,0-.211.4v2.309a.149.149,0,0,0,.236.149l1.787-.807a.223.223,0,0,1,.3.149,3.815,3.815,0,0,0,.4.881.484.484,0,0,1,0,.434l-1.241,2.4a.285.285,0,0,0,.112.36l1.241.745a.273.273,0,0,0,.347-.087l1.49-2.234a.459.459,0,0,1,.385-.186,4.42,4.42,0,0,0,.968-.1.211.211,0,0,1,.273.186l.2,1.949c0,.137.112.2.236.124l2.011-1.154a.571.571,0,0,0,.236-.385l.2-2.234a.732.732,0,0,1,.211-.41A11.165,11.165,0,0,0,352.651,107a.372.372,0,0,1,.4-.112l1.241.447a.31.31,0,0,0,.36-.137l1.477-2.557a.323.323,0,0,0-.074-.385l-1.03-.881a.4.4,0,0,1-.1-.4,12.482,12.482,0,0,0,.472-1.564.67.67,0,0,1,.248-.385l1.837-1.241A.571.571,0,0,0,357.691,99.392Zm-7.857,7.323c-1.874,1.092-3.389.211-3.389-1.949a7.447,7.447,0,0,1,3.389-5.884c1.874-1.08,3.389-.2,3.389,1.961A7.448,7.448,0,0,1,349.834,106.715Z" transform="translate(-226.59 -71.525)" fill="#37474f"/>
      <path id="Path_333" data-name="Path 333" d="M311.283,144.933c15.243-8.8,27.593-1.663,27.593,15.938s-12.35,38.988-27.593,47.788-27.593,1.663-27.593-15.925S296.04,153.733,311.283,144.933Z" transform="translate(-240.693 -59.844)" fill="#455a64"/>
      <path id="Path_334" data-name="Path 334" d="M307.512,155.6c4.965-2.855,8.949-.546,8.949,5.164a19.785,19.785,0,0,1-8.949,15.491c-4.965,2.855-8.962.546-8.962-5.164A19.773,19.773,0,0,1,307.512,155.6Z" transform="translate(-237.108 -56.657)" fill="#069ad3"/>
      <path id="Path_335" data-name="Path 335" d="M326.719,181.921c0-9.371-6.591-13.182-14.709-8.49l-5.151,2.929c-8.118,4.692-14.709,16.136-14.709,25.483v2.569a15.427,15.427,0,0,0,4.742.732,25,25,0,0,0,12.3-3.724,54.379,54.379,0,0,0,17.526-17.315Z" transform="translate(-238.652 -52.544)" fill="#069ad3"/>
      <path id="Path_336" data-name="Path 336" d="M286.381,222.3l49.824-28.76c1.477-.856,2.681-.248,2.681,1.365a5.772,5.772,0,0,1-2.681,4.456l-49.811,28.76c-1.49.869-2.694.248-2.694-1.353A5.759,5.759,0,0,1,286.381,222.3Z" transform="translate(-240.691 -47.303)" fill="#069ad3"/>
      <path id="Path_337" data-name="Path 337" d="M282.074,240.091l60.5-35.016c1.49-.856,2.693-.248,2.693,1.365a5.759,5.759,0,0,1-2.693,4.456l-60.5,35.016c-1.49.856-2.694.248-2.694-1.365A5.759,5.759,0,0,1,282.074,240.091Z" transform="translate(-241.733 -44.519)" fill="#455a64"/>
      <path id="Path_338" data-name="Path 338" d="M331.9,229.693l16.943-9.781c.894-.509,1.614-.273,1.614.534a3.24,3.24,0,0,1-1.614,2.383L331.9,232.61c-.881.509-1.614.273-1.614-.521A3.277,3.277,0,0,1,331.9,229.693Z" transform="translate(-229.451 -40.911)" fill="#37474f"/>
      <path id="Path_339" data-name="Path 339" d="M263.921,265.292l24.887-14.361c1.477-.856,2.681-.161,2.681,1.552v17.08a5.958,5.958,0,0,1-2.681,4.655l-24.887,14.361c-1.477.856-2.681.161-2.681-1.552v-17.08A5.958,5.958,0,0,1,263.921,265.292Z" transform="translate(-246.109 -33.451)" fill="#069ad3"/>
      <path id="Path_340" data-name="Path 340" d="M266.914,266.3l16.943-9.781c.894-.509,1.614-.273,1.614.521a3.24,3.24,0,0,1-1.614,2.4l-16.943,9.781c-.894.509-1.614.273-1.614-.521A3.24,3.24,0,0,1,266.914,266.3Z" transform="translate(-245.13 -32.079)" fill="#fafafa"/>
      <path id="Path_341" data-name="Path 341" d="M265.3,273.776v4.965c0,1.03.72,1.44,1.614.931l16.943-9.781a3.562,3.562,0,0,0,1.614-2.793v-4.965c0-1.03-.72-1.44-1.614-.931l-16.943,9.731A3.587,3.587,0,0,0,265.3,273.776Z" transform="translate(-245.13 -30.938)" fill="#fafafa"/>
      <path id="Path_342" data-name="Path 342" d="M296.421,246.532l24.825-14.361c1.49-.856,2.694-.161,2.694,1.552V250.8a5.933,5.933,0,0,1-2.694,4.655l-24.825,14.361c-1.49.856-2.681.161-2.681-1.552v-17.08a5.921,5.921,0,0,1,2.681-4.655Z" transform="translate(-238.269 -37.977)" fill="#069ad3"/>
      <path id="Path_343" data-name="Path 343" d="M299.414,247.543l16.943-9.781c.881-.509,1.6-.273,1.6.521a3.265,3.265,0,0,1-1.6,2.4l-16.943,9.781c-.894.509-1.614.273-1.614-.534a3.24,3.24,0,0,1,1.614-2.383Z" transform="translate(-237.289 -36.605)" fill="#fafafa"/>
      <path id="Path_344" data-name="Path 344" d="M297.8,255.016v4.965c0,1.03.72,1.44,1.614.931l16.943-9.781a3.587,3.587,0,0,0,1.6-2.793v-4.965c0-1.03-.732-1.44-1.614-.931L299.4,252.223A3.562,3.562,0,0,0,297.8,255.016Z" transform="translate(-237.289 -35.463)" fill="#fafafa"/>
      <path id="Path_345" data-name="Path 345" d="M328.923,227.775,353.748,213.4c1.477-.856,2.681-.161,2.681,1.552v17.092a5.958,5.958,0,0,1-2.681,4.655l-24.825,14.361c-1.49.856-2.694.161-2.694-1.552V232.43a5.933,5.933,0,0,1,2.694-4.655Z" transform="translate(-230.431 -42.505)" fill="#069ad3"/>
      <path id="Path_346" data-name="Path 346" d="M331.9,228.773l16.943-9.719c.894-.521,1.614-.285,1.614.521a3.2,3.2,0,0,1-1.614,2.383L331.9,231.739c-.881.521-1.614.285-1.614-.521A3.24,3.24,0,0,1,331.9,228.773Z" transform="translate(-229.451 -41.12)" fill="#fafafa"/>
      <path id="Path_347" data-name="Path 347" d="M330.29,236.26v4.965c0,1.018.732,1.44,1.614.931l16.943-9.793a3.55,3.55,0,0,0,1.614-2.793V224.6c0-1.03-.72-1.452-1.614-.931L331.9,233.455A3.574,3.574,0,0,0,330.29,236.26Z" transform="translate(-229.451 -39.993)" fill="#fafafa"/>
      <path id="Path_348" data-name="Path 348" d="M266.615,305.391l100.169-57.83c2.979-1.713,5.375-.5,5.375,2.718a11.494,11.494,0,0,1-5.375,8.925l-100.169,57.83c-2.967,1.713-5.375.5-5.375-2.718A11.531,11.531,0,0,1,266.615,305.391Z" transform="translate(-246.109 -34.363)" fill="#e0e0e0"/>
      <path id="Path_349" data-name="Path 349" d="M266.615,324.161l100.169-57.83c2.979-1.713,5.375-.5,5.375,2.718a11.494,11.494,0,0,1-5.375,8.925L266.615,335.816c-2.967,1.713-5.375.5-5.375-2.731a11.531,11.531,0,0,1,5.375-8.924Z" transform="translate(-246.109 -29.835)" fill="#e0e0e0"/>
      <path id="Path_350" data-name="Path 350" d="M292.363,325.054l34.954-20.183c1.49-.856,2.694-.161,2.694,1.552v11.258a5.933,5.933,0,0,1-2.694,4.655l-34.954,20.183c-1.49.856-2.694.161-2.694-1.552V329.709a5.933,5.933,0,0,1,2.694-4.655Z" transform="translate(-239.251 -20.438)" fill="#069ad3"/>
      <path id="Path_351" data-name="Path 351" d="M267.812,295.457a5.573,5.573,0,0,0-2.483,4.369c0,1.6,1.13,2.259,2.483,1.452a5.573,5.573,0,0,0,2.483-4.369C270.332,295.308,269.2,294.65,267.812,295.457Z" transform="translate(-245.122 -22.704)" fill="#fafafa"/>
      <path id="Path_352" data-name="Path 352" d="M274.252,291.739a5.549,5.549,0,0,0-2.483,4.369c0,1.6,1.117,2.259,2.483,1.452a5.573,5.573,0,0,0,2.482-4.369C276.772,291.59,275.643,290.908,274.252,291.739Z" transform="translate(-243.569 -23.604)" fill="#fafafa"/>
      <path id="Path_353" data-name="Path 353" d="M280.682,288.075a5.573,5.573,0,0,0-2.482,4.369c0,1.6,1.13,2.259,2.482,1.452a5.573,5.573,0,0,0,2.483-4.369C283.2,287.864,282.073,287.206,280.682,288.075Z" transform="translate(-242.018 -24.495)" fill="#fafafa"/>
      <path id="Path_354" data-name="Path 354" d="M287.122,284.3a5.561,5.561,0,0,0-2.482,4.369c0,1.6,1.129,2.259,2.482,1.452a5.573,5.573,0,0,0,2.483-4.369C289.642,284.148,288.513,283.49,287.122,284.3Z" transform="translate(-240.464 -25.397)" fill="#fafafa"/>
      <path id="Path_355" data-name="Path 355" d="M293.552,280.577a5.573,5.573,0,0,0-2.482,4.369c0,1.6,1.13,2.259,2.482,1.452a5.573,5.573,0,0,0,2.482-4.369C296.072,280.428,294.943,279.77,293.552,280.577Z" transform="translate(-238.913 -26.294)" fill="#fafafa"/>
      <path id="Path_356" data-name="Path 356" d="M299.983,276.857a5.573,5.573,0,0,0-2.483,4.369c0,1.6,1.13,2.259,2.483,1.452a5.549,5.549,0,0,0,2.482-4.369C302.5,276.708,301.385,276.05,299.983,276.857Z" transform="translate(-237.362 -27.191)" fill="#fafafa"/>
      <path id="Path_357" data-name="Path 357" d="M306.422,273.135a5.573,5.573,0,0,0-2.482,4.369c0,1.6,1.129,2.259,2.482,1.452a5.573,5.573,0,0,0,2.482-4.369C308.979,273.048,307.813,272.328,306.422,273.135Z" transform="translate(-235.808 -28.087)" fill="#fafafa"/>
      <path id="Path_358" data-name="Path 358" d="M267.812,314.236a5.6,5.6,0,0,0-2.483,4.369c0,1.614,1.13,2.259,2.483,1.452A5.548,5.548,0,0,0,270.3,315.7C270.332,314.087,269.2,313.442,267.812,314.236Z" transform="translate(-245.122 -18.173)" fill="#fafafa"/>
      <path id="Path_359" data-name="Path 359" d="M274.252,310.516a5.561,5.561,0,0,0-2.483,4.369c0,1.614,1.117,2.259,2.483,1.452a5.549,5.549,0,0,0,2.482-4.357C276.772,310.367,275.643,309.722,274.252,310.516Z" transform="translate(-243.569 -19.07)" fill="#fafafa"/>
      <path id="Path_360" data-name="Path 360" d="M280.682,306.8a5.6,5.6,0,0,0-2.482,4.369c0,1.614,1.13,2.259,2.482,1.452a5.548,5.548,0,0,0,2.483-4.357C283.2,306.648,282.073,305.99,280.682,306.8Z" transform="translate(-242.018 -19.969)" fill="#fafafa"/>
      <path id="Path_361" data-name="Path 361" d="M287.123,303.066a5.573,5.573,0,0,0-2.483,4.369c0,1.614,1.13,2.259,2.483,1.452a5.549,5.549,0,0,0,2.482-4.357C289.642,302.929,288.513,302.271,287.123,303.066Z" transform="translate(-240.464 -20.867)" fill="#fafafa"/>
      <path id="Path_362" data-name="Path 362" d="M293.552,299.357a5.573,5.573,0,0,0-2.482,4.369c0,1.614,1.13,2.259,2.482,1.452a5.548,5.548,0,0,0,2.483-4.357C296.072,299.208,294.943,298.55,293.552,299.357Z" transform="translate(-238.913 -21.763)" fill="#fafafa"/>
      <path id="Path_363" data-name="Path 363" d="M299.983,295.637a5.573,5.573,0,0,0-2.483,4.369c0,1.614,1.13,2.259,2.483,1.452a5.524,5.524,0,0,0,2.482-4.369C302.5,295.488,301.385,294.83,299.983,295.637Z" transform="translate(-237.362 -22.661)" fill="#fafafa"/>
      <path id="Path_364" data-name="Path 364" d="M306.422,291.917a5.573,5.573,0,0,0-2.482,4.369c0,1.614,1.129,2.259,2.482,1.452a5.561,5.561,0,0,0,2.483-4.369C308.979,291.768,307.813,291.11,306.422,291.917Z" transform="translate(-235.808 -23.558)" fill="#fafafa"/>
    </g>
    <g id="freepik--Key--inject-2" transform="translate(460.912 160.882)">
      <path id="Path_365" data-name="Path 365" d="M401.3,353.754a24.143,24.143,0,0,1-12.226-3.227C380.126,345.351,375,334.552,375,320.861c0-24.055,15.292-51.723,34.755-62.993,10.513-6.07,20.952-6.728,29.405-1.849,8.937,5.164,14.076,15.975,14.076,29.653,0,24.055-15.292,51.735-34.817,63.006a34.63,34.63,0,0,1-17.117,5.077Zm25.644-83.635a18.321,18.321,0,0,0-8.5,2.793c-14.15,8.13-26.066,30.113-26.066,47.949,0,7.224,2.023,12.71,5.412,14.659,3.86,2.234,9.235-.2,12.077-1.849,14.188-8.18,26.153-30.162,26.153-48,0-7.224-2.023-12.7-5.412-14.659a7.051,7.051,0,0,0-3.662-.894Z" transform="translate(-375 -111.97)" fill="#455a64"/>
      <path id="Path_366" data-name="Path 366" d="M434.644,285.977c0-13.517-8.515-18.507-8.515-18.507h0c3.389,1.961,5.412,7.447,5.412,14.659,0,17.837-11.966,39.819-26.153,48-2.842,1.651-8.2,4.084-12.077,1.849,0,0,7.187,4.469,17.117-.956C424.8,323.19,434.644,303.814,434.644,285.977Z" transform="translate(-370.583 -108.427)" fill="#37474f"/>
      <path id="Path_367" data-name="Path 367" d="M419.091,147.967a8.962,8.962,0,0,0-17.911,0h0V290.351h0a4.481,4.481,0,0,0,2.619,3.724,14.038,14.038,0,0,0,12.661,0,4.468,4.468,0,0,0,2.631-3.724h0V147.992h0Z" transform="translate(-368.684 -139.339)" fill="#37474f"/>
      <path id="Path_368" data-name="Path 368" d="M416.64,173.807a11.445,11.445,0,0,0-5.176-8.962,3.6,3.6,0,0,0-3.724-.323h0l-22.069,12.723-.534.31a.832.832,0,0,0-.223.137,7.754,7.754,0,0,0-1.055.856,7.323,7.323,0,0,0,8.627,11.643l.422-.248,22.231-12.8h0a3.637,3.637,0,0,0,1.5-3.339Z" transform="translate(-373.382 -133.353)" fill="#455a64"/>
      <path id="Path_369" data-name="Path 369" d="M417.385,202.527a11.444,11.444,0,0,0-5.176-8.949,3.575,3.575,0,0,0-3.724-.335h0l-25.892,14.895-.534.31a.969.969,0,0,0-.223.137,7.065,7.065,0,0,0-1.055.856,7.348,7.348,0,0,0,1.638,11.643,7.447,7.447,0,0,0,3.5.869,7.3,7.3,0,0,0,3.488-.869c.149-.074.286-.174.422-.248L415.9,205.94h0a3.637,3.637,0,0,0,1.489-3.413Z" transform="translate(-374.127 -126.424)" fill="#455a64"/>
    </g>
  </g>
</svg>
