<svg xmlns="http://www.w3.org/2000/svg" width="157.552" height="80.618" viewBox="0 0 157.552 80.618">
  <g id="Logo" transform="translate(0 0)">
    <g id="Group_8" data-name="Group 8" transform="translate(0 0)">
      <g id="Group_3" data-name="Group 3">
        <path id="Path_2" data-name="Path 2" d="M145.8,400.032H124.3V364.2h20.662v6.571H132.371v7.982H144.1V385.3H132.371v8.181H145.8Z" transform="translate(-124.3 -362.149)" fill="#fff"/>
        <path id="Path_3" data-name="Path 3" d="M383.8,434.018h-7.453v-3.682h-.11a8.346,8.346,0,0,1-7.63,4.3,7.974,7.974,0,0,1-5.866-2.117,7.546,7.546,0,0,1-2.139-5.645q0-7.442,8.82-8.6l6.946-.926c0-2.8-1.521-4.19-4.542-4.19a15.379,15.379,0,0,0-8.688,2.734v-5.954a19.579,19.579,0,0,1,4.52-1.5,23.212,23.212,0,0,1,5.2-.639q10.948,0,10.959,10.915v15.3Zm-7.409-10.386v-1.72l-4.653.6c-2.558.331-3.859,1.5-3.859,3.484a2.808,2.808,0,0,0,.948,2.205,3.643,3.643,0,0,0,2.536.86,4.624,4.624,0,0,0,3.616-1.544A5.462,5.462,0,0,0,376.388,423.632Z" transform="translate(-308.494 -396.135)" fill="#fff"/>
        <path id="Path_4" data-name="Path 4" d="M513.871,392.783h-7.894v-3.528h-.11a8.87,8.87,0,0,1-7.916,4.146,9.649,9.649,0,0,1-7.718-3.4c-1.94-2.249-2.933-5.4-2.933-9.46q0-6.351,3.219-10.165a10.462,10.462,0,0,1,8.445-3.815c3.308,0,5.6,1.191,6.9,3.55h.11V354.9h7.894Zm-7.762-12.437v-1.918a6.021,6.021,0,0,0-1.455-4.146,5.109,5.109,0,0,0-7.872.419,9.506,9.506,0,0,0-1.477,5.667,8.306,8.306,0,0,0,1.433,5.2,5.047,5.047,0,0,0,7.85-.088A8.181,8.181,0,0,0,506.109,380.346Z" transform="translate(-407.256 -354.9)" fill="#fff"/>
        <path id="Path_5" data-name="Path 5" d="M645.273,408.476a11.681,11.681,0,0,1-5.27.926c-5.557,0-8.357-2.889-8.357-8.666V389.005H627.5v-5.821h4.146v-5.535l7.872-2.249v7.784h5.755v5.821h-5.755v10.342c0,2.668,1.058,3.991,3.175,3.991a5.339,5.339,0,0,0,2.58-.728v5.865Z" transform="translate(-516.541 -370.88)" fill="#fff"/>
        <path id="Path_6" data-name="Path 6" d="M740.506,410.544,730.1,438.174c-2.492,6.659-6.262,9.967-11.29,9.967a14.865,14.865,0,0,1-4.719-.639v-6.307a6.629,6.629,0,0,0,3.418.926,4.293,4.293,0,0,0,4.256-2.867l1.345-3.175L712.7,410.522h8.754l4.785,15.568a20.615,20.615,0,0,1,.706,3.418h.11a24.5,24.5,0,0,1,.816-3.374L732.7,410.5h7.806Z" transform="translate(-582.953 -398.24)" fill="#fff"/>
      </g>
      <g id="Group_6" data-name="Group 6" transform="translate(13.49 9.911)">
        <g id="Group_4" data-name="Group 4" transform="translate(0 36.925)">
          <path id="Path_7" data-name="Path 7" d="M207,575.26V567.3h4.234v7.872a9.493,9.493,0,0,0,1.014.088c3.241,0,6.461.022,9.7-.022a1.9,1.9,0,0,0,1.3-.684,5.254,5.254,0,0,1,5.91-2.073,5.2,5.2,0,0,1-.022,9.9,5.276,5.276,0,0,1-5.91-2.095,1.9,1.9,0,0,0-1.3-.684c-7.828-.044-15.656-.066-23.462-.022a8.578,8.578,0,1,0,8.269,10.54,12.916,12.916,0,0,0,.243-2.624c.044-1.455,0-2.933,0-4.476h4.234c0,3.771.507,7.608-1.455,11.158a12.375,12.375,0,0,1-7.189,6.152c-5.2,1.676-9.879.551-13.583-3.462a12.091,12.091,0,0,1-2.4-13.627c2.073-4.983,6.042-7.652,11.466-7.916,2.536-.132,5.072-.022,7.608-.022A12.217,12.217,0,0,1,207,575.26Zm20.573.331a1.836,1.836,0,0,0-1.786,1.852,1.808,1.808,0,1,0,1.786-1.852Z" transform="translate(-185.476 -567.3)" fill="#fff"/>
        </g>
        <g id="Group_5" data-name="Group 5" transform="translate(10.248)">
          <path id="Path_8" data-name="Path 8" d="M248.566,428.192c0,1.1.022,2.205,0,3.308a3.209,3.209,0,1,1-6.417,0c-.022-1.058.309-2.337-.154-3.131-.419-.706-1.764-.816-2.668-1.235a12.315,12.315,0,0,1-6.483-7.7,25.594,25.594,0,0,1-.838-3.638,2.957,2.957,0,0,1,.838-2.624,2.6,2.6,0,0,0,.6-1.411c.066-2.492.022-5.006.022-7.5,0-2.337.992-3.352,3.264-3.55a3,3,0,0,0,1.169-.485,1.993,1.993,0,0,1,2.69,2.911,2.092,2.092,0,0,1-2.712.287,2.809,2.809,0,0,0-1.786-.331c-.243.044-.441.9-.463,1.411-.044,2.271,0,4.565-.044,6.836,0,.639.088,1.08.772,1.367a3.222,3.222,0,0,1,1.632,2.47,17.755,17.755,0,0,0,1.058,3.219c1.389,2.844,3.815,3.925,6.88,3.771a6.635,6.635,0,0,0,6.152-4.565c.331-.816.375-1.742.728-2.536a19.689,19.689,0,0,1,1.455-2.337,2.64,2.64,0,0,0,.573-1.058q.066-3.8,0-7.607c0-.353-.2-.948-.419-.992a1.7,1.7,0,0,0-1.257.243,2.077,2.077,0,0,1-2.8-.132,1.99,1.99,0,0,1,2.8-2.822,2.266,2.266,0,0,0,.992.375,2.958,2.958,0,0,1,2.889,3.242c.022,2.47.022,4.917,0,7.387a2.23,2.23,0,0,0,.728,1.808,2.979,2.979,0,0,1,.948,2.095c-.463,5.005-2.359,9.239-7.034,11.731C250.727,427.464,249.69,427.751,248.566,428.192Z" transform="translate(-231.951 -399.844)" fill="#fff"/>
        </g>
      </g>
      <g id="Group_7" data-name="Group 7" transform="translate(66.417 52.635)">
        <path id="Path_9" data-name="Path 9" d="M444.4,614.2v-6.2a4.462,4.462,0,0,0-.816-3.021,3.5,3.5,0,0,0-2.69-.9,11.178,11.178,0,0,0-2.073.2V614.2H434.21c-3.065,0-5.314-.617-6.7-1.83a6.81,6.81,0,0,1-2.007-5.38,9.7,9.7,0,0,1,.816-4.123l2.426-.419a9.446,9.446,0,0,0-.948,4.278c0,1.962.463,3.4,1.389,4.256,1.014.948,2.778,1.411,5.27,1.411h2.117V602.76a21.892,21.892,0,0,1,4.542-.463,4.745,4.745,0,0,1,5.535,5.424v4.7h5.27v-9.879h2.271V614.2Zm-11.533,4.631a1.269,1.269,0,0,1-.926.4,1.282,1.282,0,0,1-.948-.4,1.314,1.314,0,0,1-.375-.948,1.338,1.338,0,0,1,.375-.926,1.282,1.282,0,0,1,.948-.4,1.338,1.338,0,0,1,.926.375,1.2,1.2,0,0,1,.4.926A1.3,1.3,0,0,1,432.865,618.835Zm3.66,0a1.187,1.187,0,0,1-.9.4,1.248,1.248,0,0,1-.948-.4,1.3,1.3,0,0,1,0-1.874,1.318,1.318,0,0,1,.948-.4,1.249,1.249,0,0,1,.9.375,1.263,1.263,0,0,1,.375.926A1.367,1.367,0,0,1,436.525,618.835Zm13.363-18.942a1.3,1.3,0,0,1-.4-.97,1.269,1.269,0,0,1,.4-.926,1.2,1.2,0,0,1,.926-.4,1.28,1.28,0,0,1,1.3,1.3,1.314,1.314,0,0,1-.375.948,1.2,1.2,0,0,1-.926.4A1.167,1.167,0,0,1,449.888,599.893Zm3.661,0a1.3,1.3,0,0,1-.4-.97,1.269,1.269,0,0,1,.4-.926,1.2,1.2,0,0,1,.926-.4,1.3,1.3,0,0,1,.926.375,1.269,1.269,0,0,1,.4.926,1.282,1.282,0,0,1-.4.948,1.269,1.269,0,0,1-.926.4A1.2,1.2,0,0,1,453.549,599.893Z" transform="translate(-425.5 -596.718)" fill="#fff"/>
        <path id="Path_10" data-name="Path 10" d="M571.3,628.042h7.96a9.081,9.081,0,0,0-1.5-5.4,8.934,8.934,0,0,0-4.741-3l.573-1.94a9.924,9.924,0,0,1,7.938,10.915v1.235H571.3Z" transform="translate(-539.15 -612.386)" fill="#fff"/>
        <path id="Path_11" data-name="Path 11" d="M635.4,593.6h2.271v15.678h2.734v1.808H635.4Z" transform="translate(-589.115 -593.6)" fill="#fff"/>
        <path id="Path_12" data-name="Path 12" d="M656.4,629.835h3.616V620h2.271v9.835h3.859v1.808H656.4Zm3.043,6.461a1.269,1.269,0,0,1-.926.4,1.2,1.2,0,0,1-.926-.4,1.315,1.315,0,0,1-.375-.948,1.339,1.339,0,0,1,.375-.926,1.2,1.2,0,0,1,.926-.4,1.3,1.3,0,0,1,.926.375,1.2,1.2,0,0,1,.4.926A1.385,1.385,0,0,1,659.443,636.3Zm3.66,0a1.2,1.2,0,0,1-.926.4,1.355,1.355,0,0,1-1.345-1.345,1.27,1.27,0,0,1,.4-.926,1.283,1.283,0,0,1,.948-.4,1.339,1.339,0,0,1,.926.375,1.263,1.263,0,0,1,.375.926A1.368,1.368,0,0,1,663.1,636.3Z" transform="translate(-605.485 -614.179)" fill="#fff"/>
        <path id="Path_13" data-name="Path 13" d="M699,628.9h4.785a4.378,4.378,0,0,1-2.646-4.388,5.507,5.507,0,0,1,1.522-4.013,6.091,6.091,0,0,1,4.609-1.7,9.06,9.06,0,0,1,3.219.551l-.419,1.83a7.191,7.191,0,0,0-2.933-.6,3.605,3.605,0,0,0-2.668,1.036,3.832,3.832,0,0,0-1.036,2.823,3.734,3.734,0,0,0,1.544,3.175,8.289,8.289,0,0,0,5.028,1.3h2.029v1.808H699Z" transform="translate(-638.691 -613.243)" fill="#fff"/>
      </g>
    </g>
  </g>
</svg>
